<svg width="282" height="58" viewBox="0 0 282 58" fill="none" xmlns="http://www.w3.org/2000/svg">
<path d="M32.352 13.608L18.336 48H14.16L0.144 13.608H3.864C4.28 13.608 4.616 13.712 4.872 13.92C5.128 14.128 5.32 14.392 5.448 14.712L15.144 38.976C15.352 39.52 15.552 40.112 15.744 40.752C15.952 41.392 16.136 42.064 16.296 42.768C16.456 42.064 16.624 41.392 16.8 40.752C16.976 40.112 17.168 39.52 17.376 38.976L27.048 14.712C27.144 14.44 27.328 14.192 27.6 13.968C27.888 13.728 28.232 13.608 28.632 13.608H32.352ZM41.5324 48H36.8764V13.608H41.5324V48ZM73.5855 17.52H62.4495V48H57.8175V17.52H46.6575V13.608H73.5855V17.52ZM108.918 30.816C108.918 33.392 108.51 35.76 107.694 37.92C106.878 40.064 105.726 41.912 104.238 43.464C102.75 45.016 100.958 46.224 98.862 47.088C96.782 47.936 94.478 48.36 91.95 48.36C89.422 48.36 87.118 47.936 85.038 47.088C82.958 46.224 81.174 45.016 79.686 43.464C78.198 41.912 77.046 40.064 76.23 37.92C75.414 35.76 75.006 33.392 75.006 30.816C75.006 28.24 75.414 25.88 76.23 23.736C77.046 21.576 78.198 19.72 79.686 18.168C81.174 16.6 82.958 15.384 85.038 14.52C87.118 13.656 89.422 13.224 91.95 13.224C94.478 13.224 96.782 13.656 98.862 14.52C100.958 15.384 102.75 16.6 104.238 18.168C105.726 19.72 106.878 21.576 107.694 23.736C108.51 25.88 108.918 28.24 108.918 30.816ZM104.142 30.816C104.142 28.704 103.854 26.808 103.278 25.128C102.702 23.448 101.886 22.032 100.83 20.88C99.774 19.712 98.494 18.816 96.99 18.192C95.486 17.568 93.806 17.256 91.95 17.256C90.11 17.256 88.438 17.568 86.934 18.192C85.43 18.816 84.142 19.712 83.07 20.88C82.014 22.032 81.198 23.448 80.622 25.128C80.046 26.808 79.758 28.704 79.758 30.816C79.758 32.928 80.046 34.824 80.622 36.504C81.198 38.168 82.014 39.584 83.07 40.752C84.142 41.904 85.43 42.792 86.934 43.416C88.438 44.024 90.11 44.328 91.95 44.328C93.806 44.328 95.486 44.024 96.99 43.416C98.494 42.792 99.774 41.904 100.83 40.752C101.886 39.584 102.702 38.168 103.278 36.504C103.854 34.824 104.142 32.928 104.142 30.816ZM125.108 30.264C126.452 30.264 127.636 30.104 128.66 29.784C129.7 29.448 130.564 28.984 131.252 28.392C131.956 27.784 132.484 27.064 132.836 26.232C133.188 25.4 133.364 24.48 133.364 23.472C133.364 21.424 132.692 19.88 131.348 18.84C130.004 17.8 127.988 17.28 125.299 17.28H120.212V30.264H125.108ZM140.996 48H136.868C136.02 48 135.396 47.672 134.996 47.016L126.068 34.728C125.796 34.344 125.5 34.072 125.18 33.912C124.876 33.736 124.396 33.648 123.74 33.648H120.212V48H115.58V13.608H125.299C127.476 13.608 129.356 13.832 130.94 14.28C132.524 14.712 133.828 15.344 134.852 16.176C135.892 17.008 136.66 18.016 137.156 19.2C137.652 20.368 137.9 21.68 137.9 23.136C137.9 24.352 137.708 25.488 137.324 26.544C136.94 27.6 136.38 28.552 135.644 29.4C134.924 30.232 134.036 30.944 132.98 31.536C131.94 32.128 130.756 32.576 129.428 32.88C130.02 33.216 130.532 33.704 130.964 34.344L140.996 48ZM168.107 31.44C169.435 31.44 170.603 31.264 171.611 30.912C172.635 30.56 173.491 30.072 174.179 29.448C174.883 28.808 175.411 28.048 175.763 27.168C176.115 26.288 176.291 25.32 176.291 24.264C176.291 22.072 175.611 20.36 174.251 19.128C172.907 17.896 170.859 17.28 168.107 17.28H162.587V31.44H168.107ZM168.107 13.608C170.283 13.608 172.171 13.864 173.771 14.376C175.387 14.872 176.723 15.584 177.779 16.512C178.835 17.44 179.619 18.56 180.13 19.872C180.659 21.184 180.923 22.648 180.923 24.264C180.923 25.864 180.643 27.328 180.083 28.656C179.523 29.984 178.699 31.128 177.611 32.088C176.539 33.048 175.203 33.8 173.603 34.344C172.019 34.872 170.187 35.136 168.107 35.136H162.587V48H157.955V13.608H168.107ZM207.999 44.208L207.975 48H186.783V13.608H207.975V17.4H191.439V28.824H204.831V32.472H191.439V44.208H207.999ZM237.742 17.52H226.606V48H221.974V17.52H210.814V13.608H237.742V17.52ZM252.373 30.264C253.717 30.264 254.901 30.104 255.925 29.784C256.965 29.448 257.829 28.984 258.517 28.392C259.221 27.784 259.749 27.064 260.101 26.232C260.453 25.4 260.629 24.48 260.629 23.472C260.629 21.424 259.957 19.88 258.613 18.84C257.269 17.8 255.253 17.28 252.565 17.28H247.477V30.264H252.373ZM268.261 48H264.133C263.285 48 262.661 47.672 262.261 47.016L253.333 34.728C253.061 34.344 252.765 34.072 252.445 33.912C252.141 33.736 251.661 33.648 251.005 33.648H247.477V48H242.845V13.608H252.565C254.741 13.608 256.621 13.832 258.205 14.28C259.789 14.712 261.093 15.344 262.117 16.176C263.157 17.008 263.925 18.016 264.421 19.2C264.917 20.368 265.165 21.68 265.165 23.136C265.165 24.352 264.973 25.488 264.589 26.544C264.205 27.6 263.645 28.552 262.909 29.4C262.189 30.232 261.301 30.944 260.245 31.536C259.205 32.128 258.021 32.576 256.693 32.88C257.285 33.216 257.797 33.704 258.229 34.344L268.261 48ZM277.595 48H272.939V13.608H277.595V48Z" fill="white"/>
<path d="M82.7036 45.9073C87.3792 48.9018 93.1639 49.6043 98.4203 47.8159V47.8159C103.677 46.0274 107.833 41.9427 109.712 36.718V36.718C111.591 31.4933 110.988 25.6973 108.075 20.9707V20.9707C105.162 16.244 100.255 13.1012 94.743 12.4319V12.4319C89.2311 11.7626 83.7145 13.6396 79.7546 17.5316V17.5316C75.7947 21.4236 73.8226 26.907 74.3966 32.4295V32.4295C74.9705 37.9521 78.0281 42.9128 82.7036 45.9073V45.9073Z" fill="#00B8A0"/>
</svg>
